<svg xmlns="http://www.w3.org/2000/svg" xmlns:xlink="http://www.w3.org/1999/xlink" xmlns:lucid="lucid" width="1162" height="602"><g transform="translate(-139 -139)" lucid:page-tab-id="0_0"><path d="M0 0h1500v1000H0z" fill="#fff"/><path d="M160 166a6 6 0 0 1 6-6h468a6 6 0 0 1 6 6v548a6 6 0 0 1-6 6H166a6 6 0 0 1-6-6z" stroke="#232f3e" stroke-width="2" fill="#fff" fill-opacity="0"/><path d="M160 160h56v56h-56v-56z" stroke="#fff" stroke-opacity="0" fill="#232f3e"/><path d="M200.88 201.22h-25c-4.13.05-7.57-3.1-7.9-7.2v-.64c-.15-3.4 1.97-6.38 5.25-7.36v-.66c.12-4.22 2.44-7.75 6.24-9.57 4.13-1.86 8.73-.96 11.8 2.3 1.1 1.1 1.85 2.2 2.45 3.6 1.2-1 2.72-1.32 4.24-.9 2.24.8 3.68 2.74 3.76 5.1 3.68.65 6.32 3.8 6.28 7.56 0 7.07-7.04 7.73-7.12 7.76zm-26.7-13.88c-2.83.6-4.75 3.14-4.6 6.04v.53c.3 3.33 3.1 5.84 6.4 5.76h24.98c3.04-.3 5.4-2.64 5.68-5.7.28-3.43-2.24-6.5-5.68-6.78-.44-.05-.72-.44-.64-.87.08-1.83-1-3.44-2.72-4.13-1.32-.37-2.64.13-3.44 1.24-.2.25-.44.38-.76.33-.28-.05-.48-.24-.6-.5-.6-1.6-1.4-2.85-2.6-4.04-2.7-2.8-6.6-3.6-10.13-2-3.24 1.6-5.2 4.63-5.32 8.24-.04.4-.04.74 0 1.14.04.4-.2.76-.6.84z" stroke="#fff" stroke-opacity="0" fill="#fff"/><use xlink:href="#a" transform="matrix(1,0,0,1,231,180) translate(0 14.4)"/><use xlink:href="#b" transform="matrix(1,0,0,1,231,180) translate(70 14.4)"/><path d="M200 246a6 6 0 0 1 6-6h388a6 6 0 0 1 6 6v428a6 6 0 0 1-6 6H206a6 6 0 0 1-6-6z" stroke="#d86613" stroke-width="2" fill="#fff" fill-opacity="0"/><path d="M200 240h56v56h-56v-56z" stroke="#fff" stroke-opacity="0" fill="#d86613"/><path d="M247.2 258.75v-1.58h-3.76v-4.6h-4.8v-3.77h-1.62v3.76h-3.4v-3.76h-1.63v3.76h-3.4v-3.76H227v3.76h-3.42v-3.76h-1.6v3.76h-3.43v-3.76h-1.57v3.76h-4.42v4.57h-3.76v1.62h3.76v3.4h-3.76v1.63h3.76v3.4h-3.76v1.63h3.76v3.42h-3.76v1.62h3.76v3.4h-3.76v1.63h3.76v4.57h4.42v3.76h1.57v-3.76h3.42v3.76h1.6v-3.76H227v3.76h1.6v-3.76h3.4v3.76h1.6v-3.76h3.42v3.76h1.62v-3.76h4.8v-4.57h3.76v-1.62h-3.76v-3.4h3.76v-1.63h-3.76v-3.4h3.76v-1.63h-3.76v-3.42h3.76v-1.62h-3.76v-3.4zm-5.38 23.07h-27.64v-27.64h27.64z" stroke="#fff" stroke-opacity="0" fill="#fff"/><path d="M800 166a6 6 0 0 1 6-6h468a6 6 0 0 1 6 6v548a6 6 0 0 1-6 6H806a6 6 0 0 1-6-6z" stroke="#232f3e" stroke-width="2" fill="#fff" fill-opacity="0"/><path d="M800 160h56v56h-56v-56z" stroke="#fff" stroke-opacity="0" fill="#232f3e"/><path d="M840.88 201.22h-25c-4.13.05-7.57-3.1-7.9-7.2v-.64c-.15-3.4 1.97-6.38 5.25-7.36v-.66c.12-4.22 2.44-7.75 6.24-9.57 4.13-1.86 8.73-.96 11.8 2.3 1.1 1.1 1.85 2.2 2.45 3.6 1.2-1 2.72-1.32 4.24-.9 2.24.8 3.68 2.74 3.76 5.1 3.68.65 6.32 3.8 6.28 7.56 0 7.07-7.04 7.73-7.12 7.76zm-26.7-13.88c-2.83.6-4.75 3.14-4.6 6.04v.53c.3 3.33 3.1 5.84 6.4 5.76h24.98c3.04-.3 5.4-2.64 5.68-5.7.28-3.43-2.24-6.5-5.68-6.78-.44-.05-.72-.44-.64-.87.08-1.83-1-3.44-2.72-4.13-1.32-.37-2.64.13-3.44 1.24-.2.25-.44.38-.76.33-.28-.05-.48-.24-.6-.5-.6-1.6-1.4-2.85-2.6-4.04-2.7-2.8-6.6-3.6-10.13-2-3.24 1.6-5.2 4.63-5.32 8.24-.04.4-.04.74 0 1.14.04.4-.2.76-.6.84z" stroke="#fff" stroke-opacity="0" fill="#fff"/><use xlink:href="#a" transform="matrix(1,0,0,1,871,180) translate(0 14.4)"/><use xlink:href="#c" transform="matrix(1,0,0,1,871,180) translate(70 14.4)"/><path d="M200 240h120v120H200V240z" stroke="#000" stroke-opacity="0" fill="url(#d)"/><path d="M294.6 317.1c.57.32.94.9.94 1.55 0 .66-.3 1.24-.88 1.65l-33.7 20.6c-.35.18-.64.26-1 .26-.3 0-.67-.08-.96-.25l-33.76-20.6c-.52-.33-.88-1-.88-1.65v-39.32c0-.66.36-1.24.88-1.57l29.96-18.8c.58-.32 1.3-.32 1.9 0 .58.34 1.02.9 1.02 1.66v16.8c0 .67-.36 1.25-.95 1.66l-14.1 8.74v22.26l16.95 10.22 19.66-10.8c.6-.24 1.24-.24 1.83.08zm-34.65 20.02L290 318.74l-9.44-5.44-19.73 10.8c-.6.32-1.25.24-1.83-.1l-18.7-11.2c-.6-.33-.96-1-.96-1.65v-24.32c0-.66.37-1.23.88-1.56l14.1-8.82V264l-26.23 16.4v37.27zm36.54-59.44c.57.33.94 1 .94 1.65v31.82c0 .66-.37 1.32-.88 1.65-.3.17-.66.25-1.02.25-.3 0-.5-.08-.8-.17l-15-7.5c-.64-.33-1-1-1-1.73V287.9l-15.94-8.82c-.6-.33-.95-.9-.95-1.65v-16.8c0-.67.36-1.33.95-1.66.58-.33 1.32-.33 1.83 0zm-2.8 30.5V280.4l-28.12-16.57v12.53l15.93 8.82c.6.33.96 1 .96 1.65v15.67zm-23-21.35l-9.5 11.87 9.93 12.53h-4.16l-8.85-11.3v11.22h-3.8v-24.32h3.8v9.8l8.33-9.8z" stroke="#000" stroke-opacity="0" fill="#fff"/><path d="M439.66 403.17c-1.14.1-2.05.34-2.96.8l-39.44 19.43c-2.16 1.02-3.64 2.84-4.1 5.23l-9.77 43.76c-.47 2.04-.13 4.1 1 5.9.13.23.24.34.47.57l27.28 35c1.48 1.94 3.52 2.97 5.9 2.97h43.9c2.38 0 4.42-1.03 5.9-2.96l27.28-35c1.48-1.94 2.05-4.2 1.48-6.6l-9.77-43.65c-.45-2.4-1.93-4.2-4.1-5.23l-39.43-19.44c-1.25-.56-2.4-.9-3.64-.8z" stroke="#000" stroke-opacity="0" stroke-width="3.83" fill="#fc9432"/><path d="M439.64 400c-1.2.12-2.16.36-3.12.84l-41.64 20.52c-2.28 1.08-3.84 3-4.32 5.52l-10.32 46.2c-.48 2.16-.12 4.32 1.08 6.24.12.24.24.36.48.6l28.8 36.96c1.56 2.04 3.72 3.12 6.24 3.12h46.32c2.52 0 4.68-1.08 6.24-3.12l28.8-36.96c1.56-2.04 2.16-4.44 1.56-6.84l-10.32-46.2c-.48-2.52-2.04-4.44-4.32-5.52l-41.64-20.52c-1.32-.6-2.52-.96-3.84-.84zm0 3.24c1.32-.12 2.4.12 3.6.72l39.6 19.44c2.04 1.08 3.48 2.88 4.08 5.28l9.72 43.68c.48 2.4 0 4.56-1.44 6.48l-27.36 35.04c-1.44 1.92-3.48 3-5.88 3h-43.92c-2.4 0-4.44-1.08-5.88-3l-27.36-35.04c-.12-.12-.24-.36-.36-.6-1.2-1.8-1.56-3.72-1.08-5.88l9.72-43.68c.6-2.4 1.92-4.2 4.08-5.28l39.6-19.44c.96-.48 1.8-.72 2.88-.84z" stroke="#000" stroke-opacity="0" stroke-width="3.83" fill="#fff"/><path d="M434.02 502.07c0 3.56-1.2 5.35-3.64 5.35-1.53 0-2.56-.6-3.08-1.8h-.05c.03.07.04.6.04 1.63v4h-1.66v-12.17c0-1.05-.02-1.74-.06-2.1h1.6l.02.3.05.7.02.66h.04c.3-.62.7-1.08 1.17-1.37.48-.3 1.1-.45 1.9-.45 1.23 0 2.14.42 2.74 1.27.62.82.92 2.15.92 3.97zm-1.73.03c0-1.42-.2-2.44-.56-3.05-.38-.62-.97-.92-1.8-.92-.64 0-1.15.15-1.52.44-.37.27-.65.72-.85 1.32-.2.58-.28 1.38-.28 2.33 0 1.35.2 2.33.6 2.97.43.63 1.1.95 2.04.95.82 0 1.4-.3 1.78-.92.38-.62.57-1.66.57-3.13zM444.48 502.1c0 1.8-.4 3.13-1.15 4-.76.88-1.88 1.32-3.33 1.32-1.44 0-2.54-.46-3.28-1.36-.74-.92-1.1-2.24-1.1-3.96 0-3.53 1.47-5.3 4.44-5.3 1.52 0 2.63.45 3.34 1.3.72.87 1.08 2.2 1.08 4zm-1.73 0c0-1.4-.22-2.43-.62-3.07-.4-.64-1.08-.95-2.04-.95-.98 0-1.68.3-2.1.97-.44.65-.66 1.67-.66 3.05 0 1.35.2 2.37.64 3.05.42.68 1.1 1 2 1 1 0 1.7-.3 2.12-.97.43-.66.65-1.7.65-3.08zM452.8 505.58c-.3.66-.7 1.12-1.22 1.4-.5.3-1.13.44-1.87.44-1.24 0-2.17-.45-2.76-1.3-.58-.88-.88-2.2-.88-3.96 0-3.57 1.2-5.35 3.65-5.35.76 0 1.38.16 1.9.44.5.28.9.74 1.2 1.35v-5.4h1.64v11.9c0 1.08.03 1.8.06 2.13h-1.58l-.06-.7c0-.37-.03-.68-.03-.95zm-5-3.48c0 1.44.18 2.46.54 3.07.37.63.96.94 1.8.94.93 0 1.6-.33 2.02-1 .43-.67.64-1.7.64-3.1 0-1.36-.2-2.36-.64-2.98-.42-.63-1.1-.96-2-.96-.84 0-1.44.33-1.82.97-.36.63-.55 1.65-.55 3.07z" stroke="#000" stroke-opacity="0" fill="#fff"/><path d="M415.92 440.2L440 433l24.08 7.2-24.08 7.2zM415.92 442.95v26.4l22.44 12.83.1-32.32zM464.08 442.95v26.4l-22.44 12.83-.1-32.32z" stroke="#000" stroke-opacity="0" stroke-width="3.77" fill="#fff"/><use xlink:href="#e" transform="matrix(1,0,0,1,350,529) translate(72.22222222222223 15.999999999999998)"/><path d="M398.44 516.27c.96.9 1.56 2.17 1.56 3.43v10.57c0 2.45-1.92 4.48-4.32 4.62-.72.06-1.32.13-1.92.13l-4.32.42-.48.07c-5.64.56-10.92 1.12-14.16.7-2.28-.35-5.28-1.68-9.12-3.36-4.92-2.17-11.16-4.9-16.32-5.25-8.52-.7-25.08 1.27-32.28 6.66-4.68 3.43-11.52 4.76-15.12 5.25-2.16.3-4.44.5-6.72.5-5.52 0-10.92-1.05-13.8-3.85-1.56-1.68-1.56-3.3-1.32-4.2.6-3.36 4.8-5.18 10.56-7.77 1.92-.84 3.84-1.75 5.64-2.66v-.35c0-15.4 6.84-29.9 18.72-39.7 8.88-7.4 20.28-11.47 31.92-11.47 25.68 0 47.28 19.8 50.16 45.43.48.2.96.5 1.32.84zm-3.84 13.23v-8.82l-.6.07c-1.32.14-2.76.28-4.32.42l-.96.07c0 2.6-2.16 4.7-4.68 4.7h-9.96c-2.52 0-4.56-2.1-4.56-4.7v-.56c-.96-.35-1.92-.7-3-1.12-5.04-1.96-12-4.7-19.56-4.2-12.36.7-18.36 1.47-22.92 2.73l-1.56-5.26c5.04-1.47 11.28-2.24 24.12-3 8.76-.5 16.32 2.44 21.84 4.54.48.2.72.35 1.2.5.36-2.1 2.28-3.72 4.44-3.72h2.28c-5.76-14.7-20.64-24.64-37.2-24.64-7.44 0-14.64 1.96-20.88 5.67-9.24 7.2-14.52 17.9-14.52 29.32v1.75c3.84 2.45 8.88 3.92 14.16 4.13 9.24-4.4 23.64-5.95 31.92-5.32 6 .5 12.6 3.43 18 5.74 3.12 1.4 6.12 2.73 7.8 2.94 2.52.35 8.04-.2 12.84-.7l.36-.07 4.44-.43c.48-.07.84-.07 1.32-.07zm-47.64-53.97c-10.44 0-20.52 3.64-28.56 10.22 0 .07 0 .07-.12.14 6.48-3.23 13.56-4.9 20.88-4.9 19.56 0 36.96 12.3 42.96 30.16h1.92c2.52 0 4.56 2.03 4.68 4.55h.48c.84-.13 1.68-.2 2.4-.27-2.76-22.54-21.84-39.9-44.64-39.9zm-45.72 58.52c3.24-.42 6.36-1.26 8.88-2.24-4.32-1.1-8.16-2.93-11.4-5.3-1.92.97-3.84 1.88-5.88 2.72-2.28 1.05-5.4 2.45-6.84 3.5 2.28 1.47 8.04 2.3 15.24 1.33zm73.68-13.65h8.28v-3.7h-8.28z" stroke="#000" stroke-opacity="0" fill="#bf0816"/><use xlink:href="#f" transform="matrix(1,0,0,1,250,549) translate(42.525 14.4)"/><use xlink:href="#g" transform="matrix(1,0,0,1,250,549) translate(79.525 14.4)"/><use xlink:href="#h" transform="matrix(1,0,0,1,250,549) translate(56.575 36)"/><use xlink:href="#i" transform="matrix(1,0,0,1,250,549) translate(93.525 36)"/><path d="M1215.88 466.12c.35 1.44-.1 2.88-1.04 3.96-1.04 1.32-3.02 1.8-5.68 1.8-1.98 0-4.4-.24-6.96-.84l-4.76 35.16c-.12 3.48-3.25 6.36-9.16 8.76-2.32.84-5 1.68-8 2.4-7.55 1.68-16.6 2.64-25.64 2.64-16.48 0-42.46-3.72-42.92-13.8l-11.6-85.56-.12-1.08v-.36c0-11.28 28.77-19.2 54.64-19.2 25.75 0 54.52 7.92 54.52 19.2v.36l-.12 1.08-4.76 34.8c7.43 4.2 11.02 7.44 11.6 10.68zm-23.9 39.6l4.88-36c-11.83-3.36-27.03-10.08-38.98-15.72-.92.6-2.08 1.08-3.24 1.08-3.25 0-5.8-2.64-5.8-5.76 0-3.12 2.55-5.64 5.8-5.64 3 0 5.56 2.4 5.68 5.4 13.22 6.24 27.26 12 37.24 15.12l4.87-36.24c-.58.48-1.4.84-2.1 1.2-.22.12-.45.24-.7.24-.68.36-1.38.6-2.07.96-.35.12-.58.24-.93.36-.7.24-1.5.48-2.32.84-.22 0-.46.12-.7.12-1.03.36-2.2.72-3.24.96-.34.12-.7.12-.92.24-.93.24-1.74.48-2.67.6-.35.12-.7.24-1.16.24-1.04.24-1.96.48-3 .6-.24.12-.47.12-.7.12l-3.83.72c-.35 0-.8 0-1.16.12l-3 .36c-.36 0-.82.12-1.17.12l-3.7.36h-.47l-4.18.36h-1.16c-1.04.12-2.1.12-3.25.12-.35 0-.8 0-1.16.12h-8.46c-.34-.12-.8-.12-1.16-.12-1.16 0-2.2 0-3.24-.12h-1.16l-4.18-.36h-.46l-3.72-.36c-.34 0-.8-.12-1.16-.12l-3-.36c-.36-.12-.82-.12-1.17-.12l-3.84-.72c-.23 0-.46 0-.7-.12-1.04-.12-1.97-.36-3-.6-.36 0-.82-.12-1.17-.24-.94-.12-1.75-.36-2.68-.6-.23 0-.58-.12-.93-.24-1.05-.24-2.2-.6-3.26-.96-.23 0-.46-.12-.7-.12-.8-.36-1.5-.6-2.3-.84-.36-.12-.6-.24-.94-.36-.7-.36-1.4-.6-2.1-.96-.22 0-.45-.12-.68-.24-.7-.36-1.4-.72-2.1-1.2l10.56 77.76v.36c0 2.52 14.04 8.52 37.36 8.52 8.58 0 17.28-.96 24.36-2.52 2.78-.72 5.22-1.44 7.3-2.16 4.53-1.8 5.57-3.48 5.57-3.84 0-.12 0-.24.12-.36zm-37.34-100.32c-28.66 0-48.72 8.88-49.2 13.68l.13.6c0 .12.1.36.23.48.12.12.12.36.23.48l.47.48c.1.12.23.36.46.48.12.12.35.36.58.48.23.12.46.36.7.48.23.12.46.36.8.48.24.24.47.36.82.48.23.24.7.36.93.48.34.24.68.36 1.03.48.35.24.8.36 1.16.48.46.24.8.36 1.27.48.35.24.8.36 1.27.48.47.24.93.36 1.4.48.46.12.92.36 1.5.48.47.12.93.24 1.5.48.6.12 1.17.24 1.64.36l1.74.36c.58.24 1.27.36 1.85.48.58.12 1.16.24 1.86.36.58.12 1.27.24 1.97.36.58.12 1.28.24 1.97.24.7.12 1.4.24 2.2.36.7.12 1.28.24 1.98.24.8.12 1.62.24 2.43.24.7.12 1.4.24 2.1.24.8.12 1.73.12 2.66.24.7 0 1.4.12 2.1.12 1.03.12 2.08.12 3.12.12.58.12 1.16.12 1.86.12 1.62 0 3.36.12 5.22.12 1.74 0 3.48-.12 5.1-.12.7 0 1.28 0 1.86-.12 1.04 0 2.08 0 3.13-.12.7 0 1.27-.12 1.97-.12.93-.12 1.86-.12 2.78-.24.7 0 1.4-.12 2.1-.24.8 0 1.62-.12 2.43-.24.7 0 1.28-.12 1.98-.24.8-.12 1.5-.24 2.2-.36.7 0 1.28-.12 1.98-.24s1.4-.24 1.97-.36c.7-.12 1.27-.24 1.85-.36.58-.12 1.28-.24 1.86-.48l1.74-.36c.46-.12 1.04-.24 1.62-.36.58-.24 1.05-.36 1.5-.48.6-.12 1.06-.36 1.52-.48.46-.12.93-.24 1.4-.48.46-.12.92-.24 1.27-.48.45-.12.8-.24 1.26-.48.35-.12.82-.24 1.16-.48.35-.12.7-.24 1.05-.48.35-.12.7-.24.93-.48.34-.12.58-.24.8-.48.36-.12.6-.36.82-.48.23-.12.46-.36.7-.48.23-.12.46-.36.58-.48.23-.12.34-.36.46-.48l.46-.48c.12-.12.12-.24.24-.48.1-.12.23-.36.23-.48l.1-.6c-.46-4.8-20.53-13.68-49.06-13.68zm48.25 60.36c3.47.96 6.14 1.32 7.42.96-.47-.84-1.98-2.52-6.85-5.4zm-48.6-16.44c0 .12.1.12.22.24l.12-.48c-.24 0-.35.12-.35.24z" stroke="#000" stroke-opacity="0" fill="#3f8624"/><use xlink:href="#j" transform="matrix(1,0,0,1,1070,529) translate(26.599999999999994 14.4)"/><use xlink:href="#k" transform="matrix(1,0,0,1,1070,529) translate(86.44999999999999 14.4)"/><use xlink:href="#l" transform="matrix(1,0,0,1,1070,529) translate(28.049999999999997 36)"/><use xlink:href="#m" transform="matrix(1,0,0,1,1070,529) translate(92.95 36)"/><path d="M998.44 471.27c.96.9 1.56 2.17 1.56 3.43v10.57c0 2.45-1.92 4.48-4.32 4.62-.72.06-1.32.13-1.92.13l-4.32.42-.48.07c-5.64.56-10.92 1.12-14.16.7-2.28-.35-5.28-1.68-9.12-3.36-4.92-2.17-11.16-4.9-16.32-5.25-8.52-.7-25.08 1.27-32.28 6.66-4.68 3.43-11.52 4.76-15.12 5.25-2.16.3-4.44.5-6.72.5-5.52 0-10.92-1.05-13.8-3.85-1.56-1.68-1.56-3.3-1.32-4.2.6-3.36 4.8-5.18 10.56-7.77 1.92-.84 3.84-1.75 5.64-2.66v-.35c0-15.4 6.84-29.9 18.72-39.7 8.88-7.4 20.28-11.47 31.92-11.47 25.68 0 47.28 19.8 50.16 45.43.48.2.96.5 1.32.84zm-3.84 13.23v-8.82l-.6.07c-1.32.14-2.76.28-4.32.42l-.96.07c0 2.6-2.16 4.7-4.68 4.7h-9.96c-2.52 0-4.56-2.1-4.56-4.7v-.56c-.96-.35-1.92-.7-3-1.12-5.04-1.96-12-4.7-19.56-4.2-12.36.7-18.36 1.47-22.92 2.73l-1.56-5.26c5.04-1.47 11.28-2.24 24.12-3 8.76-.5 16.32 2.44 21.84 4.54.48.2.72.35 1.2.5.36-2.1 2.28-3.72 4.44-3.72h2.28c-5.76-14.7-20.64-24.64-37.2-24.64-7.44 0-14.64 1.96-20.88 5.67-9.24 7.2-14.52 17.9-14.52 29.32v1.75c3.84 2.45 8.88 3.92 14.16 4.13 9.24-4.4 23.64-5.95 31.92-5.32 6 .5 12.6 3.43 18 5.74 3.12 1.4 6.12 2.73 7.8 2.94 2.52.35 8.04-.2 12.84-.7l.36-.07 4.44-.43c.48-.07.84-.07 1.32-.07zm-47.64-53.97c-10.44 0-20.52 3.64-28.56 10.22 0 .07 0 .07-.12.14 6.48-3.23 13.56-4.9 20.88-4.9 19.56 0 36.96 12.3 42.96 30.16h1.92c2.52 0 4.56 2.03 4.68 4.55h.48c.84-.13 1.68-.2 2.4-.27-2.76-22.54-21.84-39.9-44.64-39.9zm-45.72 58.52c3.24-.42 6.36-1.26 8.88-2.24-4.32-1.1-8.16-2.93-11.4-5.3-1.92.97-3.84 1.88-5.88 2.72-2.28 1.05-5.4 2.45-6.84 3.5 2.28 1.47 8.04 2.3 15.24 1.33zm73.68-13.65h8.28v-3.7h-8.28z" stroke="#000" stroke-opacity="0" fill="#bf0816"/><use xlink:href="#n" transform="matrix(1,0,0,1,850,504) translate(56.575 14.4)"/><use xlink:href="#i" transform="matrix(1,0,0,1,850,504) translate(93.525 14.4)"/><path d="M666.06 460.48H497.34v-.96h168.72zm216.58 0H771.6v-.96h111.04z" stroke="#3a414a" stroke-width=".05" fill="#3a414a"/><path d="M497.35 460.48h-.4l-.22-.96h.62z" fill="#3a414a"/><path stroke="#3a414a" stroke-width=".05" fill="#3a414a"/><path d="M897.4 460l-14.26 4.63v-9.26z" fill="#3a414a"/><path d="M898.94 460l-16.28 5.3v-10.6zm-15.33 3.98L895.9 460l-12.25-3.98z" stroke="#3a414a" stroke-width=".05" fill="#3a414a"/><g><use xlink:href="#o" transform="matrix(1,0,0,1,666.0566989437209,449.3333333333333) translate(0 14.222222222222223)"/><use xlink:href="#p" transform="matrix(1,0,0,1,666.0566989437209,449.3333333333333) translate(69.08641975308643 14.222222222222223)"/></g><path d="M995.27 460h93.8" stroke="#3a414a" fill="none"/><path d="M995.28 460.48h-.35l-.32-.96h.68z" stroke="#3a414a" stroke-width=".05" fill="#3a414a"/><path d="M1103.83 460l-14.26 4.63v-9.26z" stroke="#3a414a" fill="#3a414a"/><path d="M300 246a6 6 0 0 1 6-6h228a6 6 0 0 1 6 6v48a6 6 0 0 1-6 6H306a6 6 0 0 1-6-6z" stroke="#000" stroke-opacity="0" stroke-width="2" fill="#fff" fill-opacity="0"/><g><use xlink:href="#q" transform="matrix(1,0,0,1,305,245) translate(33.59259259259261 29.84722222222222)"/><use xlink:href="#r" transform="matrix(1,0,0,1,305,245) translate(103.66666666666667 29.84722222222222)"/><use xlink:href="#s" transform="matrix(1,0,0,1,305,245) translate(144.1604938271605 29.84722222222222)"/></g><defs><path fill="#232f3e" d="M205 0l-28-72H64L36 0H1l101-248h38L239 0h-34zm-38-99l-47-123c-12 45-31 82-46 123h93" id="t"/><path fill="#232f3e" d="M96-169c-40 0-48 33-48 73s9 75 48 75c24 0 41-14 43-38l32 2c-6 37-31 61-74 61-59 0-76-41-82-99-10-93 101-131 147-64 4 7 5 14 7 22l-32 3c-4-21-16-35-41-35" id="u"/><path fill="#232f3e" d="M100-194c62-1 85 37 85 99 1 63-27 99-86 99S16-35 15-95c0-66 28-99 85-99zM99-20c44 1 53-31 53-75 0-43-8-75-51-75s-53 32-53 75 10 74 51 75" id="v"/><path fill="#232f3e" d="M84 4C-5 8 30-112 23-190h32v120c0 31 7 50 39 49 72-2 45-101 50-169h31l1 190h-30c-1-10 1-25-2-33-11 22-28 36-60 37" id="w"/><path fill="#232f3e" d="M117-194c89-4 53 116 60 194h-32v-121c0-31-8-49-39-48C34-167 62-67 57 0H25l-1-190h30c1 10-1 24 2 32 11-22 29-35 61-36" id="x"/><path fill="#232f3e" d="M59-47c-2 24 18 29 38 22v24C64 9 27 4 27-40v-127H5v-23h24l9-43h21v43h35v23H59v120" id="y"/><g id="a"><use transform="matrix(0.05,0,0,0.05,0,0)" xlink:href="#t"/><use transform="matrix(0.05,0,0,0.05,12,0)" xlink:href="#u"/><use transform="matrix(0.05,0,0,0.05,21,0)" xlink:href="#u"/><use transform="matrix(0.05,0,0,0.05,30,0)" xlink:href="#v"/><use transform="matrix(0.05,0,0,0.05,40,0)" xlink:href="#w"/><use transform="matrix(0.05,0,0,0.05,50,0)" xlink:href="#x"/><use transform="matrix(0.05,0,0,0.05,60,0)" xlink:href="#y"/></g><use transform="matrix(0.05,0,0,0.05,0,0)" xlink:href="#t" id="b"/><path fill="#232f3e" d="M160-131c35 5 61 23 61 61C221 17 115-2 30 0v-248c76 3 177-17 177 60 0 33-19 50-47 57zm-97-11c50-1 110 9 110-42 0-47-63-36-110-37v79zm0 115c55-2 124 14 124-45 0-56-70-42-124-44v89" id="z"/><use transform="matrix(0.05,0,0,0.05,0,0)" xlink:href="#z" id="c"/><linearGradient gradientUnits="userSpaceOnUse" id="d" x1="200" y1="360" x2="320" y2="240"><stop offset="0%" stop-color="#c8511b"/><stop offset="100%" stop-color="#f90"/></linearGradient><path fill="#3a414a" d="M205 0l-28-72H64L36 0H1l101-248h38L239 0h-34zm-38-99l-47-123c-12 45-31 82-46 123h93" id="A"/><path fill="#3a414a" d="M115-194c55 1 70 41 70 98S169 2 115 4C84 4 66-9 55-30l1 105H24l-1-265h31l2 30c10-21 28-34 59-34zm-8 174c40 0 45-34 45-75s-6-73-45-74c-42 0-51 32-51 76 0 43 10 73 51 73" id="B"/><g id="e"><use transform="matrix(0.055555555555555546,0,0,0.055555555555555546,0,0)" xlink:href="#A"/><use transform="matrix(0.055555555555555546,0,0,0.055555555555555546,13.33333333333333,0)" xlink:href="#B"/><use transform="matrix(0.055555555555555546,0,0,0.055555555555555546,24.44444444444444,0)" xlink:href="#B"/></g><path d="M30-248c87 1 191-15 191 75 0 78-77 80-158 76V0H30v-248zm33 125c57 0 124 11 124-50 0-59-68-47-124-48v98" id="C"/><path d="M100-194c62-1 85 37 85 99 1 63-27 99-86 99S16-35 15-95c0-66 28-99 85-99zM99-20c44 1 53-31 53-75 0-43-8-75-51-75s-53 32-53 75 10 74 51 75" id="D"/><path d="M85-194c31 0 48 13 60 33l-1-100h32l1 261h-30c-2-10 0-23-3-31C134-8 116 4 85 4 32 4 16-35 15-94c0-66 23-100 70-100zm9 24c-40 0-46 34-46 75 0 40 6 74 45 74 42 0 51-32 51-76 0-42-9-74-50-73" id="E"/><g id="f"><use transform="matrix(0.05,0,0,0.05,0,0)" xlink:href="#C"/><use transform="matrix(0.05,0,0,0.05,12,0)" xlink:href="#D"/><use transform="matrix(0.05,0,0,0.05,22,0)" xlink:href="#E"/></g><path d="M33 0v-248h34V0H33" id="F"/><path d="M100-194c63 0 86 42 84 106H49c0 40 14 67 53 68 26 1 43-12 49-29l28 8c-11 28-37 45-77 45C44 4 14-33 15-96c1-61 26-98 85-98zm52 81c6-60-76-77-97-28-3 7-6 17-6 28h103" id="G"/><path d="M117-194c89-4 53 116 60 194h-32v-121c0-31-8-49-39-48C34-167 62-67 57 0H25l-1-190h30c1 10-1 24 2 32 11-22 29-35 61-36" id="H"/><path d="M59-47c-2 24 18 29 38 22v24C64 9 27 4 27-40v-127H5v-23h24l9-43h21v43h35v23H59v120" id="I"/><path d="M24-231v-30h32v30H24zM24 0v-190h32V0H24" id="J"/><path d="M179-190L93 31C79 59 56 82 12 73V49c39 6 53-20 64-50L1-190h34L92-34l54-156h33" id="K"/><g id="g"><use transform="matrix(0.05,0,0,0.05,0,0)" xlink:href="#F"/><use transform="matrix(0.05,0,0,0.05,5,0)" xlink:href="#E"/><use transform="matrix(0.05,0,0,0.05,15,0)" xlink:href="#G"/><use transform="matrix(0.05,0,0,0.05,25,0)" xlink:href="#H"/><use transform="matrix(0.05,0,0,0.05,35,0)" xlink:href="#I"/><use transform="matrix(0.05,0,0,0.05,40,0)" xlink:href="#J"/><use transform="matrix(0.05,0,0,0.05,43.95,0)" xlink:href="#I"/><use transform="matrix(0.05,0,0,0.05,48.95,0)" xlink:href="#K"/></g><path d="M205 0l-28-72H64L36 0H1l101-248h38L239 0h-34zm-38-99l-47-123c-12 45-31 82-46 123h93" id="L"/><path d="M240 0l2-218c-23 76-54 145-80 218h-23L58-218 59 0H30v-248h44l77 211c21-75 51-140 76-211h43V0h-30" id="M"/><g id="h"><use transform="matrix(0.05,0,0,0.05,0,0)" xlink:href="#F"/><use transform="matrix(0.05,0,0,0.05,5,0)" xlink:href="#L"/><use transform="matrix(0.05,0,0,0.05,17,0)" xlink:href="#M"/></g><path d="M114-163C36-179 61-72 57 0H25l-1-190h30c1 12-1 29 2 39 6-27 23-49 58-41v29" id="N"/><path d="M24 0v-261h32V0H24" id="O"/><g id="i"><use transform="matrix(0.05,0,0,0.05,0,0)" xlink:href="#N"/><use transform="matrix(0.05,0,0,0.05,5.95,0)" xlink:href="#D"/><use transform="matrix(0.05,0,0,0.05,15.949999999999998,0)" xlink:href="#O"/><use transform="matrix(0.05,0,0,0.05,19.9,0)" xlink:href="#G"/></g><path d="M185-189c-5-48-123-54-124 2 14 75 158 14 163 119 3 78-121 87-175 55-17-10-28-26-33-46l33-7c5 56 141 63 141-1 0-78-155-14-162-118-5-82 145-84 179-34 5 7 8 16 11 25" id="P"/><path d="M210-169c-67 3-38 105-44 169h-31v-121c0-29-5-50-35-48C34-165 62-65 56 0H25l-1-190h30c1 10-1 24 2 32 10-44 99-50 107 0 11-21 27-35 58-36 85-2 47 119 55 194h-31v-121c0-29-5-49-35-48" id="Q"/><path d="M115-194c55 1 70 41 70 98S169 2 115 4C84 4 66-9 55-30l1 105H24l-1-265h31l2 30c10-21 28-34 59-34zm-8 174c40 0 45-34 45-75s-6-73-45-74c-42 0-51 32-51 76 0 43 10 73 51 73" id="R"/><g id="j"><use transform="matrix(0.05,0,0,0.05,0,0)" xlink:href="#P"/><use transform="matrix(0.05,0,0,0.05,12,0)" xlink:href="#J"/><use transform="matrix(0.05,0,0,0.05,15.949999999999998,0)" xlink:href="#Q"/><use transform="matrix(0.05,0,0,0.05,30.899999999999995,0)" xlink:href="#R"/><use transform="matrix(0.05,0,0,0.05,40.9,0)" xlink:href="#O"/><use transform="matrix(0.05,0,0,0.05,44.85,0)" xlink:href="#G"/></g><path d="M141-36C126-15 110 5 73 4 37 3 15-17 15-53c-1-64 63-63 125-63 3-35-9-54-41-54-24 1-41 7-42 31l-33-3c5-37 33-52 76-52 45 0 72 20 72 64v82c-1 20 7 32 28 27v20c-31 9-61-2-59-35zM48-53c0 20 12 33 32 33 41-3 63-29 60-74-43 2-92-5-92 41" id="S"/><path d="M177-190C167-65 218 103 67 71c-23-6-38-20-44-43l32-5c15 47 100 32 89-28v-30C133-14 115 1 83 1 29 1 15-40 15-95c0-56 16-97 71-98 29-1 48 16 59 35 1-10 0-23 2-32h30zM94-22c36 0 50-32 50-73 0-42-14-75-50-75-39 0-46 34-46 75s6 73 46 73" id="T"/><g id="k"><use transform="matrix(0.05,0,0,0.05,0,0)" xlink:href="#P"/><use transform="matrix(0.05,0,0,0.05,12,0)" xlink:href="#I"/><use transform="matrix(0.05,0,0,0.05,17,0)" xlink:href="#D"/><use transform="matrix(0.05,0,0,0.05,27,0)" xlink:href="#N"/><use transform="matrix(0.05,0,0,0.05,32.95,0)" xlink:href="#S"/><use transform="matrix(0.05,0,0,0.05,42.95,0)" xlink:href="#T"/><use transform="matrix(0.05,0,0,0.05,52.95,0)" xlink:href="#G"/></g><path d="M108 0H70L1-190h34L89-25l56-165h34" id="U"/><path d="M96-169c-40 0-48 33-48 73s9 75 48 75c24 0 41-14 43-38l32 2c-6 37-31 61-74 61-59 0-76-41-82-99-10-93 101-131 147-64 4 7 5 14 7 22l-32 3c-4-21-16-35-41-35" id="V"/><g id="l"><use transform="matrix(0.05,0,0,0.05,0,0)" xlink:href="#P"/><use transform="matrix(0.05,0,0,0.05,12,0)" xlink:href="#G"/><use transform="matrix(0.05,0,0,0.05,22,0)" xlink:href="#N"/><use transform="matrix(0.05,0,0,0.05,27.950000000000003,0)" xlink:href="#U"/><use transform="matrix(0.05,0,0,0.05,36.95,0)" xlink:href="#J"/><use transform="matrix(0.05,0,0,0.05,40.900000000000006,0)" xlink:href="#V"/><use transform="matrix(0.05,0,0,0.05,49.900000000000006,0)" xlink:href="#G"/></g><path d="M160-131c35 5 61 23 61 61C221 17 115-2 30 0v-248c76 3 177-17 177 60 0 33-19 50-47 57zm-97-11c50-1 110 9 110-42 0-47-63-36-110-37v79zm0 115c55-2 124 14 124-45 0-56-70-42-124-44v89" id="W"/><path d="M84 4C-5 8 30-112 23-190h32v120c0 31 7 50 39 49 72-2 45-101 50-169h31l1 190h-30c-1-10 1-25-2-33-11 22-28 36-60 37" id="X"/><path d="M143 0L79-87 56-68V0H24v-261h32v163l83-92h37l-77 82L181 0h-38" id="Y"/><g id="m"><use transform="matrix(0.05,0,0,0.05,0,0)" xlink:href="#W"/><use transform="matrix(0.05,0,0,0.05,12,0)" xlink:href="#X"/><use transform="matrix(0.05,0,0,0.05,22,0)" xlink:href="#V"/><use transform="matrix(0.05,0,0,0.05,31,0)" xlink:href="#Y"/><use transform="matrix(0.05,0,0,0.05,40,0)" xlink:href="#G"/><use transform="matrix(0.05,0,0,0.05,50,0)" xlink:href="#I"/></g><g id="n"><use transform="matrix(0.05,0,0,0.05,0,0)" xlink:href="#F"/><use transform="matrix(0.05,0,0,0.05,5,0)" xlink:href="#L"/><use transform="matrix(0.05,0,0,0.05,17,0)" xlink:href="#M"/></g><path fill="#333" d="M205 0l-28-72H64L36 0H1l101-248h38L239 0h-34zm-38-99l-47-123c-12 45-31 82-46 123h93" id="Z"/><path fill="#333" d="M135-143c-3-34-86-38-87 0 15 53 115 12 119 90S17 21 10-45l28-5c4 36 97 45 98 0-10-56-113-15-118-90-4-57 82-63 122-42 12 7 21 19 24 35" id="aa"/><path fill="#333" d="M84 4C-5 8 30-112 23-190h32v120c0 31 7 50 39 49 72-2 45-101 50-169h31l1 190h-30c-1-10 1-25-2-33-11 22-28 36-60 37" id="ab"/><path fill="#333" d="M210-169c-67 3-38 105-44 169h-31v-121c0-29-5-50-35-48C34-165 62-65 56 0H25l-1-190h30c1 10-1 24 2 32 10-44 99-50 107 0 11-21 27-35 58-36 85-2 47 119 55 194h-31v-121c0-29-5-49-35-48" id="ac"/><path fill="#333" d="M100-194c63 0 86 42 84 106H49c0 40 14 67 53 68 26 1 43-12 49-29l28 8c-11 28-37 45-77 45C44 4 14-33 15-96c1-61 26-98 85-98zm52 81c6-60-76-77-97-28-3 7-6 17-6 28h103" id="ad"/><g id="o"><use transform="matrix(0.04938271604938272,0,0,0.04938271604938272,0,0)" xlink:href="#Z"/><use transform="matrix(0.04938271604938272,0,0,0.04938271604938272,11.851851851851853,0)" xlink:href="#aa"/><use transform="matrix(0.04938271604938272,0,0,0.04938271604938272,20.74074074074074,0)" xlink:href="#aa"/><use transform="matrix(0.04938271604938272,0,0,0.04938271604938272,29.629629629629633,0)" xlink:href="#ab"/><use transform="matrix(0.04938271604938272,0,0,0.04938271604938272,39.50617283950618,0)" xlink:href="#ac"/><use transform="matrix(0.04938271604938272,0,0,0.04938271604938272,54.27160493827161,0)" xlink:href="#ad"/></g><path fill="#333" d="M233-177c-1 41-23 64-60 70L243 0h-38l-65-103H63V0H30v-248c88 3 205-21 203 71zM63-129c60-2 137 13 137-47 0-61-80-42-137-45v92" id="ae"/><path fill="#333" d="M100-194c62-1 85 37 85 99 1 63-27 99-86 99S16-35 15-95c0-66 28-99 85-99zM99-20c44 1 53-31 53-75 0-43-8-75-51-75s-53 32-53 75 10 74 51 75" id="af"/><path fill="#333" d="M24 0v-261h32V0H24" id="ag"/><g id="p"><use transform="matrix(0.04938271604938272,0,0,0.04938271604938272,0,0)" xlink:href="#ae"/><use transform="matrix(0.04938271604938272,0,0,0.04938271604938272,12.790123456790125,0)" xlink:href="#af"/><use transform="matrix(0.04938271604938272,0,0,0.04938271604938272,22.66666666666667,0)" xlink:href="#ag"/><use transform="matrix(0.04938271604938272,0,0,0.04938271604938272,26.567901234567902,0)" xlink:href="#ad"/></g><path fill="#3a414a" d="M210-169c-67 3-38 105-44 169h-31v-121c0-29-5-50-35-48C34-165 62-65 56 0H25l-1-190h30c1 10-1 24 2 32 10-44 99-50 107 0 11-21 27-35 58-36 85-2 47 119 55 194h-31v-121c0-29-5-49-35-48" id="ah"/><path fill="#3a414a" d="M141-36C126-15 110 5 73 4 37 3 15-17 15-53c-1-64 63-63 125-63 3-35-9-54-41-54-24 1-41 7-42 31l-33-3c5-37 33-52 76-52 45 0 72 20 72 64v82c-1 20 7 32 28 27v20c-31 9-61-2-59-35zM48-53c0 20 12 33 32 33 41-3 63-29 60-74-43 2-92-5-92 41" id="ai"/><path fill="#3a414a" d="M9 0v-24l116-142H16v-24h144v24L44-24h123V0H9" id="aj"/><path fill="#3a414a" d="M100-194c62-1 85 37 85 99 1 63-27 99-86 99S16-35 15-95c0-66 28-99 85-99zM99-20c44 1 53-31 53-75 0-43-8-75-51-75s-53 32-53 75 10 74 51 75" id="ak"/><path fill="#3a414a" d="M117-194c89-4 53 116 60 194h-32v-121c0-31-8-49-39-48C34-167 62-67 57 0H25l-1-190h30c1 10-1 24 2 32 11-22 29-35 61-36" id="al"/><g id="q"><use transform="matrix(0.049382716049382706,0,0,0.049382716049382706,0,0)" xlink:href="#A"/><use transform="matrix(0.049382716049382706,0,0,0.049382716049382706,11.85185185185185,0)" xlink:href="#ah"/><use transform="matrix(0.049382716049382706,0,0,0.049382716049382706,26.617283950617278,0)" xlink:href="#ai"/><use transform="matrix(0.049382716049382706,0,0,0.049382716049382706,36.49382716049382,0)" xlink:href="#aj"/><use transform="matrix(0.049382716049382706,0,0,0.049382716049382706,45.38271604938271,0)" xlink:href="#ak"/><use transform="matrix(0.049382716049382706,0,0,0.049382716049382706,55.259259259259245,0)" xlink:href="#al"/></g><path fill="#3a414a" d="M30 0v-248h187v28H63v79h144v27H63v87h162V0H30" id="am"/><path fill="#3a414a" d="M194 0L95-120 63-95V0H30v-248h33v124l119-124h40L117-140 236 0h-42" id="an"/><path fill="#3a414a" d="M185-189c-5-48-123-54-124 2 14 75 158 14 163 119 3 78-121 87-175 55-17-10-28-26-33-46l33-7c5 56 141 63 141-1 0-78-155-14-162-118-5-82 145-84 179-34 5 7 8 16 11 25" id="ao"/><g id="r"><use transform="matrix(0.049382716049382706,0,0,0.049382716049382706,0,0)" xlink:href="#am"/><use transform="matrix(0.049382716049382706,0,0,0.049382716049382706,11.85185185185185,0)" xlink:href="#an"/><use transform="matrix(0.049382716049382706,0,0,0.049382716049382706,23.7037037037037,0)" xlink:href="#ao"/></g><path fill="#3a414a" d="M96-169c-40 0-48 33-48 73s9 75 48 75c24 0 41-14 43-38l32 2c-6 37-31 61-74 61-59 0-76-41-82-99-10-93 101-131 147-64 4 7 5 14 7 22l-32 3c-4-21-16-35-41-35" id="ap"/><path fill="#3a414a" d="M24 0v-261h32V0H24" id="aq"/><path fill="#3a414a" d="M84 4C-5 8 30-112 23-190h32v120c0 31 7 50 39 49 72-2 45-101 50-169h31l1 190h-30c-1-10 1-25-2-33-11 22-28 36-60 37" id="ar"/><path fill="#3a414a" d="M135-143c-3-34-86-38-87 0 15 53 115 12 119 90S17 21 10-45l28-5c4 36 97 45 98 0-10-56-113-15-118-90-4-57 82-63 122-42 12 7 21 19 24 35" id="as"/><path fill="#3a414a" d="M59-47c-2 24 18 29 38 22v24C64 9 27 4 27-40v-127H5v-23h24l9-43h21v43h35v23H59v120" id="at"/><path fill="#3a414a" d="M100-194c63 0 86 42 84 106H49c0 40 14 67 53 68 26 1 43-12 49-29l28 8c-11 28-37 45-77 45C44 4 14-33 15-96c1-61 26-98 85-98zm52 81c6-60-76-77-97-28-3 7-6 17-6 28h103" id="au"/><path fill="#3a414a" d="M114-163C36-179 61-72 57 0H25l-1-190h30c1 12-1 29 2 39 6-27 23-49 58-41v29" id="av"/><g id="s"><use transform="matrix(0.049382716049382706,0,0,0.049382716049382706,0,0)" xlink:href="#ap"/><use transform="matrix(0.049382716049382706,0,0,0.049382716049382706,8.888888888888888,0)" xlink:href="#aq"/><use transform="matrix(0.049382716049382706,0,0,0.049382716049382706,12.790123456790122,0)" xlink:href="#ar"/><use transform="matrix(0.049382716049382706,0,0,0.049382716049382706,22.666666666666664,0)" xlink:href="#as"/><use transform="matrix(0.049382716049382706,0,0,0.049382716049382706,31.55555555555555,0)" xlink:href="#at"/><use transform="matrix(0.049382716049382706,0,0,0.049382716049382706,36.49382716049382,0)" xlink:href="#au"/><use transform="matrix(0.049382716049382706,0,0,0.049382716049382706,46.37037037037037,0)" xlink:href="#av"/></g></defs></g></svg>